<?xml version="1.0" encoding="utf-8"?>
<!-- Generator: Adobe Illustrator 21.1.0, SVG Export Plug-In . SVG Version: 6.00 Build 0)  -->
<svg version="1.1" id="Layer_1" xmlns="http://www.w3.org/2000/svg" xmlns:xlink="http://www.w3.org/1999/xlink" x="0px" y="0px"
	 viewBox="0 0 240.4 61.6" style="enable-background:new 0 0 240.4 61.6;" xml:space="preserve">
<style type="text/css">
	.st0{fill:#6D6D6D;}
	.st1{fill:#ED2024;}
</style>
<g>
	<g>
		<path d="M80.8,34.5V20.1h7.6c2.8,0,4.2,1.8,4.2,3.7c0,1.8-1.1,3-2.5,3.3c1.6,0.2,2.8,1.7,2.8,3.5c0,2.2-1.4,3.9-4.2,3.9H80.8z
			 M89.4,24.3c0-0.9-0.6-1.5-1.7-1.5h-3.9v3h3.9C88.8,25.8,89.4,25.2,89.4,24.3z M89.7,30.2c0-0.9-0.6-1.6-1.8-1.6h-4v3.3h4
			C89,31.8,89.7,31.2,89.7,30.2z"/>
		<path d="M95.1,34.5V24.1h2.8v1.4c0.8-0.9,2-1.7,3.3-1.7v2.7c-0.2,0-0.4-0.1-0.8-0.1c-0.9,0-2.1,0.5-2.6,1.2v6.9H95.1z"/>
		<path d="M102.2,29.3c0-3,2.1-5.5,5.5-5.5c3.5,0,5.5,2.5,5.5,5.5s-2.1,5.5-5.5,5.5C104.3,34.8,102.2,32.3,102.2,29.3z M110.4,29.3
			c0-1.6-1-3-2.7-3c-1.7,0-2.7,1.4-2.7,3c0,1.6,1,3.1,2.7,3.1C109.5,32.4,110.4,30.9,110.4,29.3z"/>
		<path d="M114.7,29.3c0-3,2.1-5.5,5.5-5.5c3.5,0,5.5,2.5,5.5,5.5s-2.1,5.5-5.5,5.5C116.8,34.8,114.7,32.3,114.7,29.3z M122.9,29.3
			c0-1.6-1-3-2.7-3c-1.7,0-2.7,1.4-2.7,3c0,1.6,1,3.1,2.7,3.1C121.9,32.4,122.9,30.9,122.9,29.3z"/>
		<path d="M134.6,34.5l-2.8-4l-1.3,1.3v2.7h-2.8V20.1h2.8v8.6l4-4.7h3.4l-4.1,4.7l4.3,5.7H134.6z"/>
		<path d="M138.6,29.3c0-3,2.3-5.5,5.4-5.5c3.1,0,5.2,2.3,5.2,5.7v0.6h-7.8c0.2,1.3,1.2,2.3,3,2.3c0.9,0,2.1-0.4,2.8-1l1.2,1.8
			c-1,1-2.7,1.5-4.3,1.5C141,34.8,138.6,32.7,138.6,29.3z M144,26.1c-1.7,0-2.4,1.2-2.6,2.2h5.2C146.5,27.3,145.8,26.1,144,26.1z"/>
		<path class="st0" d="M150.6,27.3c0-4.5,3.4-7.5,7.7-7.5c3.2,0,5,1.7,6,3.5l-2.6,1.3c-0.6-1.2-1.9-2.1-3.4-2.1
			c-2.6,0-4.5,2-4.5,4.7s1.9,4.7,4.5,4.7c1.5,0,2.8-0.9,3.4-2.1l2.6,1.3c-1,1.8-2.9,3.6-6,3.6C154,34.8,150.6,31.8,150.6,27.3z"/>
		<path class="st0" d="M165.5,29.3c0-3,2.1-5.5,5.5-5.5c3.5,0,5.5,2.5,5.5,5.5s-2.1,5.5-5.5,5.5C167.5,34.8,165.5,32.3,165.5,29.3z
			 M173.7,29.3c0-1.6-1-3-2.7-3c-1.7,0-2.7,1.4-2.7,3c0,1.6,1,3.1,2.7,3.1C172.7,32.4,173.7,30.9,173.7,29.3z"/>
		<path class="st0" d="M185.7,34.5v-6.3c0-1.5-0.8-1.9-1.9-1.9c-1.1,0-1.9,0.6-2.4,1.2v7.1h-2.8V24.1h2.8v1.3c0.7-0.8,2-1.6,3.7-1.6
			c2.3,0,3.4,1.3,3.4,3.3v7.4H185.7z"/>
		<path class="st0" d="M190.2,33.2l1.2-2c0.8,0.7,2.3,1.5,3.6,1.5c1.2,0,1.8-0.5,1.8-1.1c0-1.7-6.2-0.3-6.2-4.4
			c0-1.8,1.5-3.3,4.3-3.3c1.8,0,3.2,0.6,4.2,1.4l-1.1,1.9c-0.6-0.6-1.8-1.2-3.1-1.2c-1,0-1.6,0.4-1.6,1c0,1.5,6.2,0.2,6.2,4.5
			c0,1.9-1.6,3.3-4.5,3.3C193.1,34.8,191.3,34.2,190.2,33.2z"/>
		<path class="st0" d="M208.5,34.5v-1.3c-0.7,0.8-2,1.6-3.7,1.6c-2.3,0-3.4-1.3-3.4-3.3v-7.4h2.8v6.3c0,1.5,0.8,1.9,1.9,1.9
			c1.1,0,1.9-0.6,2.4-1.2v-7.1h2.8v10.5H208.5z"/>
		<path class="st0" d="M214,34.5V20.1h2.8v14.4H214z"/>
		<path class="st0" d="M220.1,31.9v-5.4h-1.7v-2.4h1.7v-2.9h2.8v2.9h2.1v2.4h-2.1v4.7c0,0.7,0.3,1.2,1,1.2c0.4,0,0.8-0.2,1-0.3
			l0.6,2.1c-0.4,0.4-1.1,0.7-2.3,0.7C221.1,34.8,220.1,33.8,220.1,31.9z"/>
	</g>
	<g>
		<path d="M83.7,45.5l-0.3-1.4h-3.1l-0.9,1.4h-0.9l3.9-6.3h1l1.1,6.3H83.7z M82.8,40l-2.1,3.4h2.7L82.8,40z"/>
		<path d="M85.4,45.5l1.4-6.3h0.7l-1.4,6.3H85.4z"/>
		<path d="M91.5,45.5l-0.4-3.7l-2,3.7h-0.7l-0.4-4.6h0.7l0.3,3.6l2-3.6h0.6l0.4,3.6l1.9-3.6h0.8l-2.5,4.6H91.5z"/>
		<path d="M98.6,41.6l0.2-0.7h0.7l-1,4.6h-0.7l0.1-0.7c-0.4,0.5-0.9,0.8-1.5,0.8c-1,0-1.8-0.7-1.8-1.9c0-1.5,0.9-2.9,2.4-2.9
			C97.7,40.8,98.3,41.1,98.6,41.6z M95.4,43.6c0,0.8,0.5,1.4,1.3,1.4c0.6,0,1.1-0.4,1.4-0.8l0.4-2c-0.2-0.4-0.7-0.7-1.4-0.7
			C96.1,41.4,95.4,42.5,95.4,43.6z"/>
		<path d="M99.5,46.6c0.1,0,0.3,0.1,0.5,0.1c0.2,0,0.4-0.1,0.7-0.5l0.5-0.7l-0.9-4.6h0.7l0.7,3.7l2.4-3.7h0.8l-3.5,5.5
			c-0.4,0.6-0.8,0.9-1.4,0.9c-0.2,0-0.4,0-0.6-0.1L99.5,46.6z"/>
		<path d="M104.3,44.8l0.5-0.5c0.2,0.4,0.8,0.7,1.5,0.7c0.7,0,1-0.4,1-0.8c0-0.9-2.4-0.7-2.4-2c0-0.8,0.6-1.4,1.7-1.4
			c0.8,0,1.4,0.3,1.7,0.7L108,42c-0.2-0.3-0.8-0.6-1.4-0.6c-0.6,0-1,0.3-1,0.7c0,0.8,2.4,0.7,2.4,2c0,0.8-0.6,1.5-1.8,1.5
			C105.4,45.6,104.7,45.3,104.3,44.8z"/>
		<path d="M111.5,43.6c0-1.4,1.1-2.8,2.5-2.8c1.3,0,2.1,0.8,2.1,2c0,1.4-1.1,2.8-2.5,2.8C112.3,45.6,111.5,44.8,111.5,43.6z
			 M115.4,42.8c0-0.9-0.5-1.4-1.4-1.4c-1,0-1.8,1-1.8,2.1c0,0.9,0.5,1.4,1.4,1.4C114.6,44.9,115.4,43.9,115.4,42.8z"/>
		<path d="M119.8,45.5l0.7-3c0-0.1,0-0.2,0-0.3c0-0.5-0.4-0.7-0.9-0.7c-0.5,0-1.1,0.3-1.4,0.7l-0.7,3.3h-0.7l1-4.6h0.7l-0.2,0.7
			c0.4-0.4,1-0.8,1.6-0.8c0.8,0,1.4,0.4,1.4,1.1c0,0.1,0,0.3-0.1,0.4l-0.7,3.2H119.8z"/>
		<path d="M125.3,44.8l-0.5,2.5H124l1.4-6.3h0.7l-0.1,0.7c0.4-0.5,0.9-0.8,1.5-0.8c1,0,1.8,0.7,1.8,1.9c0,1.5-0.9,2.9-2.4,2.9
			C126.1,45.6,125.6,45.3,125.3,44.8z M128.5,42.8c0-0.8-0.5-1.4-1.3-1.4c-0.6,0-1.1,0.4-1.4,0.8l-0.4,2c0.2,0.4,0.7,0.7,1.4,0.7
			C127.8,44.9,128.5,43.9,128.5,42.8z"/>
		<path d="M130,43.6c0-1.4,1.1-2.8,2.5-2.8c1.3,0,2.1,0.8,2.1,2c0,1.4-1.1,2.8-2.5,2.8C130.7,45.6,130,44.8,130,43.6z M133.8,42.8
			c0-0.9-0.5-1.4-1.4-1.4c-1,0-1.8,1-1.8,2.1c0,0.9,0.5,1.4,1.4,1.4C133.1,44.9,133.8,43.9,133.8,42.8z"/>
		<path d="M135.2,45.5l1-4.6h0.7l-1,4.6H135.2z M136.3,39.8c0-0.3,0.3-0.5,0.5-0.5c0.2,0,0.4,0.2,0.4,0.4c0,0.3-0.3,0.5-0.5,0.5
			C136.5,40.3,136.3,40.1,136.3,39.8z"/>
		<path d="M140.4,45.5l0.7-3c0-0.1,0-0.2,0-0.3c0-0.5-0.4-0.7-0.9-0.7c-0.5,0-1.1,0.3-1.4,0.7l-0.7,3.3h-0.7l1-4.6h0.7l-0.2,0.7
			c0.4-0.4,1-0.8,1.6-0.8c0.8,0,1.4,0.4,1.4,1.1c0,0.1,0,0.3-0.1,0.4l-0.7,3.2H140.4z"/>
		<path d="M142.9,44.8c0,0,0-0.2,0-0.3l0.7-3h-0.8l0.1-0.6h0.8l0.3-1.2h0.7l-0.3,1.2h0.9l-0.1,0.6h-0.9l-0.6,2.8c0,0,0,0.1,0,0.2
			c0,0.3,0.2,0.4,0.5,0.4c0.2,0,0.3-0.1,0.4-0.2l0.1,0.6c-0.2,0.1-0.4,0.2-0.7,0.2C143.3,45.6,142.9,45.3,142.9,44.8z"/>
	</g>
	<path class="st1" d="M66.6,57.6H14V5h52.6V57.6z M19.4,52.2h41.8V10.4H19.4V52.2z"/>
	<circle class="st1" cx="40.3" cy="31.3" r="6"/>
</g>
</svg>
